<svg width="198" height="189" viewBox="0 0 198 189" fill="none" xmlns="http://www.w3.org/2000/svg">
<g clip-path="url(#clip0_270_24073)">
<path d="M31.4293 44.3562C47.0273 3.71933 102.236 -1.76506 127.891 0.572364C90.948 12.0656 76.0113 43.6721 73.1608 58.0387C73.6739 65.222 76.4104 75.4838 77.7786 78.5624C78.8732 81.0252 78.2347 83.3512 77.7786 84.2064L75.5552 88.8242C74.301 86.8288 71.4163 82.1198 69.9112 79.2465C68.0299 75.6548 57.768 72.0632 52.9792 69.4977C48.1903 66.9323 42.7173 70.0108 43.9145 79.2465C44.8723 86.635 51.6109 91.1046 54.8605 92.4158C54.7237 94.0577 55.7157 96.1785 56.2287 97.0337C52.124 106.098 26.8115 128.332 25.2722 129.53C23.7329 130.727 20.1413 127.648 20.4833 124.912C20.8209 122.211 27.6551 114.013 28.6561 112.813L28.6928 112.769C29.548 111.742 33.1396 110.887 32.1134 109.348C31.0872 107.809 30.7452 108.493 29.548 109.348C28.3507 110.203 21.1674 118.413 18.431 121.662C15.6945 124.912 11.0766 120.465 11.5897 118.07C12.1028 115.676 15.1814 109.519 16.8917 108.493C18.602 107.467 20.3123 105.414 19.1151 104.73C17.9179 104.046 13.4711 108.835 11.4187 111.913C9.36633 114.992 7.48499 113.624 5.77469 111.913C4.06438 110.203 5.77469 107.296 7.48499 104.046C9.19529 100.796 13.4711 95.8365 11.4187 96.1785C9.77681 96.4522 6.17376 101.537 4.57747 104.046C2.86716 103.989 -0.382422 102.951 0.301701 99.2571C0.985824 95.5628 2.98118 91.5607 3.89335 90.0214L7.48499 93.442C10.7346 96.3496 15.3524 94.1262 18.431 91.7317C20.8938 89.8162 21.0534 87.3989 20.8254 86.4298C24.417 86.7718 24.9301 86.2587 28.0087 82.8381C30.4715 80.1016 30.2891 77.0231 29.89 75.8259C40.2887 70.7634 35.591 62.9986 31.9424 59.749C40.2887 52.7709 35.0779 46.5796 31.4293 44.3562Z" fill="#4D148C"/>
<path d="M51.2682 72.7474C49.079 71.6528 48.5317 72.8614 48.5317 73.6026C48.0187 77.7073 47.8476 82.8382 51.2682 85.9168C54.0047 88.3796 60.846 91.1617 63.9245 92.2449C61.8721 92.5186 59.3067 92.3589 58.2805 92.2449C58.5541 95.3919 62.6133 101.081 64.6086 103.533C63.1036 102.849 60.3329 100.739 59.1357 99.7703C49.9 113.282 31.2576 129.53 29.0342 131.24C27.2555 132.608 27.3809 134.775 27.666 135.687C43.5377 185.354 101.323 191.386 128.232 188.193C87.8688 178.273 74.3574 137.397 72.8181 128.674C71.2788 119.952 75.7256 101.138 76.0677 99.7703C76.3413 98.6757 75.7256 97.0338 75.3836 96.3496C72.6471 91.6748 67.0715 82.0857 66.661 81.1279C66.2505 80.1701 65.3498 79.4746 64.9507 79.2466C61.302 77.5363 53.4574 73.842 51.2682 72.7474Z" fill="#FF6600"/>
<path d="M15.1817 89.6796C13.403 91.4583 10.9059 90.8768 9.87973 90.3637C6.63015 89.9404 -1.06623 79.5888 1.67026 74.6289C4.40675 69.669 9.02458 72.2344 7.65633 70.8662C6.28809 69.4979 5.775 66.2484 7.65633 63.1698C9.1614 60.707 11.9321 60.0913 13.1293 60.0913C11.0769 57.0127 12.6162 55.8155 14.4976 52.5659C16.0026 49.9662 18.2032 49.8864 19.1154 50.1715C18.2602 48.9743 19.1154 47.0929 21.5098 44.6985C23.9043 42.3041 28.009 46.0667 30.5744 48.4612C33.1399 50.8556 32.7978 52.7369 31.2586 54.9603C29.7193 57.1837 27.6669 57.8679 24.0753 55.8155C20.4836 53.7631 29.0352 62.1436 30.5744 63.8539C32.1137 65.5642 33.3109 66.4194 32.4558 69.1559C31.6006 71.8924 29.0352 72.9186 25.9566 72.2344C22.8781 71.5503 15.1817 61.6305 15.8658 63.8539C16.5499 66.0773 23.2201 72.9186 25.1015 74.9709C26.9828 77.0233 26.4697 78.7336 25.1015 80.957C23.7332 83.1804 20.9967 83.5225 19.1154 82.6673C17.6103 81.9832 12.3312 77.0233 9.87973 74.6289C10.9059 77.0233 13.9845 80.6149 15.8658 83.1804C17.7471 85.7459 17.4051 87.4562 15.1817 89.6796Z" fill="#FF6600"/>
<path d="M120.708 9.80828C97.5843 18.8387 85.0762 40.9359 81.7126 50.8556C109.42 39.0545 120.708 48.2902 157.308 44.5275C186.589 41.5174 196.303 14.084 197.5 0.743652C195.277 1.42778 149.612 -1.47975 120.708 9.80828Z" fill="url(#paint0_linear_270_24073)"/>
<path d="M120.708 178.957C97.5843 169.927 85.0762 147.83 81.7126 137.91C109.42 149.711 120.708 140.475 157.308 144.238C186.589 147.248 196.303 174.682 197.5 188.022C195.277 187.338 149.612 190.245 120.708 178.957Z" fill="url(#paint1_linear_270_24073)"/>
</g>
<defs>
<linearGradient id="paint0_linear_270_24073" x1="188.094" y1="18.1888" x2="81.7126" y2="25.7141" gradientUnits="userSpaceOnUse">
<stop stop-color="#FF6600"/>
<stop offset="1" stop-color="#FFB800"/>
</linearGradient>
<linearGradient id="paint1_linear_270_24073" x1="185.186" y1="170.406" x2="94.1979" y2="169.551" gradientUnits="userSpaceOnUse">
<stop stop-color="#4D148C"/>
<stop offset="1" stop-color="#561BFF"/>
</linearGradient>
<clipPath id="clip0_270_24073">
<rect width="197.292" height="188.782" fill="white" transform="translate(0.208008 0.115723)"/>
</clipPath>
</defs>
</svg>
