<svg width="198" height="189" viewBox="0 0 198 189" fill="none" xmlns="http://www.w3.org/2000/svg">
<g clip-path="url(#clip0_537_13745)">
<path d="M31.9292 44.2405C47.5272 3.6036 102.736 -1.88078 128.39 0.456641C91.4479 11.9499 76.5112 43.5564 73.6607 57.923C74.1738 65.1062 76.9102 75.3681 78.2785 78.4466C79.3731 80.9095 78.7346 83.2355 78.2785 84.0907L76.0551 88.7085C74.8009 86.7131 71.9161 82.0041 70.4111 79.1308C68.5297 75.5391 58.2679 71.9475 53.479 69.382C48.6902 66.8166 43.2172 69.8951 44.4144 79.1308C45.3722 86.5193 52.1108 90.9889 55.3604 92.3001C55.2236 93.942 56.2155 96.0628 56.7286 96.918C52.6239 105.983 27.3113 128.217 25.7721 129.414C24.2328 130.611 20.6411 127.532 20.9832 124.796C21.3208 122.095 28.155 113.897 29.1559 112.697L29.1927 112.653C30.0478 111.627 33.6395 110.771 32.6133 109.232C31.5871 107.693 31.245 108.377 30.0478 109.232C28.8506 110.087 21.6673 118.297 18.9308 121.546C16.1943 124.796 11.5765 120.349 12.0896 117.955C12.6027 115.56 15.6813 109.403 17.3916 108.377C19.1019 107.351 20.8122 105.298 19.615 104.614C18.4177 103.93 13.9709 108.719 11.9186 111.798C9.86621 114.876 7.98487 113.508 6.27457 111.798C4.56426 110.087 6.27457 107.18 7.98487 103.93C9.69517 100.681 13.9709 95.7207 11.9186 96.0628C10.2767 96.3364 6.67363 101.422 5.07735 103.93C3.36704 103.873 0.117456 102.836 0.801579 99.1413C1.4857 95.4471 3.48106 91.445 4.39322 89.9057L7.98487 93.3263C11.2345 96.2338 15.8523 94.0104 18.9308 91.616C21.3937 89.7005 21.5533 87.2832 21.3253 86.314C24.9169 86.6561 25.43 86.143 28.5086 82.7224C30.9714 79.9859 30.789 76.9074 30.3899 75.7101C40.7886 70.6476 36.0909 62.8828 32.4423 59.6333C40.7886 52.6552 35.5778 46.4639 31.9292 44.2405Z" fill="white"/>
<path d="M51.7684 72.6317C49.5792 71.5371 49.0319 72.7457 49.0319 73.4868C48.5188 77.5916 48.3477 82.7225 51.7684 85.801C54.5049 88.2639 61.3461 91.046 64.4246 92.1292C62.3723 92.4028 59.8068 92.2432 58.7806 92.1292C59.0543 95.2761 63.1134 100.966 65.1088 103.417C63.6037 102.733 60.833 100.624 59.6358 99.6545C50.4001 113.166 31.7578 129.414 29.5344 131.124C27.7556 132.492 27.8811 134.659 28.1661 135.571C44.0378 185.238 101.823 191.27 128.732 188.077C88.3689 178.158 74.8575 137.281 73.3182 128.559C71.7789 119.836 76.2257 101.023 76.5678 99.6545C76.8415 98.5599 76.2257 96.918 75.8837 96.2339C73.1472 91.5591 67.5716 81.97 67.1611 81.0122C66.7506 80.0544 65.8499 79.3589 65.4508 79.1308C61.8022 77.4205 53.9576 73.7263 51.7684 72.6317Z" fill="white"/>
<path d="M15.6817 89.5638C13.903 91.3426 11.4059 90.7611 10.3797 90.248C7.13015 89.8246 -0.566227 79.473 2.17026 74.5131C4.90675 69.5533 9.52458 72.1187 8.15633 70.7505C6.78809 69.3822 6.275 66.1326 8.15633 63.0541C9.6614 60.5912 12.4321 59.9755 13.6293 59.9755C11.5769 56.897 13.1162 55.6998 14.9976 52.4502C16.5026 49.8505 18.7032 49.7707 19.6154 50.0558C18.7602 48.8585 19.6154 46.9772 22.0098 44.5828C24.4043 42.1883 28.509 45.951 31.0744 48.3454C33.6399 50.7399 33.2978 52.6212 31.7586 54.8446C30.2193 57.068 28.1669 57.7521 24.5753 55.6998C20.9836 53.6474 29.5352 62.0279 31.0744 63.7382C32.6137 65.4485 33.8109 66.3037 32.9558 69.0402C32.1006 71.7767 29.5352 72.8028 26.4566 72.1187C23.3781 71.4346 15.6817 61.5148 16.3658 63.7382C17.0499 65.9616 23.7201 72.8028 25.6015 74.8552C27.4828 76.9076 26.9697 78.6179 25.6015 80.8413C24.2332 83.0647 21.4967 83.4067 19.6154 82.5516C18.1103 81.8675 12.8312 76.9076 10.3797 74.5131C11.4059 76.9076 14.4845 80.4992 16.3658 83.0647C18.2471 85.6301 17.9051 87.3404 15.6817 89.5638Z" fill="white"/>
<path d="M121.208 9.69256C98.0842 18.723 85.5761 40.8201 82.2125 50.7399C109.919 38.9388 121.208 48.1745 157.808 44.4118C187.089 41.4016 196.803 13.9683 198 0.62793C195.777 1.31205 150.112 -1.59547 121.208 9.69256Z" fill="white"/>
<path d="M121.208 178.842C98.0842 169.811 85.5761 147.714 82.2125 137.794C109.919 149.595 121.208 140.36 157.808 144.122C187.089 147.133 196.803 174.566 198 187.906C195.777 187.222 150.112 190.13 121.208 178.842Z" fill="white"/>
</g>
<defs>
<clipPath id="clip0_537_13745">
<rect width="197.292" height="188.782" fill="white" transform="translate(0.708008)"/>
</clipPath>
</defs>
</svg>
